<svg xmlns="http://www.w3.org/2000/svg" width="1280" height="1240" viewBox="0 0 1280 1240"><defs><marker id="arr" markerWidth="9" markerHeight="9" refX="7.5" refY="3" orient="auto" markerUnits="strokeWidth"><path d="M0,0 L7.5,3 L0,6 Z" fill="#f5a623"/></marker><marker id="arrR" markerWidth="9" markerHeight="9" refX="7.5" refY="3" orient="auto" markerUnits="strokeWidth"><path d="M0,0 L7.5,3 L0,6 Z" fill="#f85149"/></marker></defs><rect width="1280" height="1240" fill="#0e1116"/><text x="28" y="40" fill="#e6edf3" font-family="DejaVu Sans, Arial, sans-serif" font-size="22" font-weight="bold">SATYAMEBA — User &amp; request lifecycle (flowchart)</text><text x="1252" y="40" fill="#8b949e" font-family="DejaVu Sans, Arial, sans-serif" font-size="13" text-anchor="end">SATYAMEBA · © Samaraho Mukherjee</text><line x1="28" y1="52" x2="1252" y2="52" stroke="#2a323d"/><rect x="540" y="80" width="200" height="50" rx="10" fill="#161b22" stroke="#f5a623" stroke-width="2"/><text x="640.0" y="101.0" fill="#e6edf3" font-family="DejaVu Sans, Arial, sans-serif" font-size="13" text-anchor="middle" font-weight="bold">Register</text><text x="640.0" y="119.0" fill="#8b949e" font-family="DejaVu Sans, Arial, sans-serif" font-size="11.5" text-anchor="middle" font-weight="normal">status = pending</text><polygon points="640,165.0 740.0,200 640,235.0 540.0,200" fill="#161b22" stroke="#d29922" stroke-width="2"/><text x="640" y="204" fill="#e6edf3" font-family="DejaVu Sans, Arial, sans-serif" font-size="12" text-anchor="middle" font-weight="bold">Admin approves?</text><rect x="900" y="175" width="180" height="50" rx="10" fill="#161b22" stroke="#f85149" stroke-width="2"/><text x="990.0" y="205.0" fill="#e6edf3" font-family="DejaVu Sans, Arial, sans-serif" font-size="13" text-anchor="middle" font-weight="bold">Rejected / waits</text><rect x="540" y="290" width="200" height="50" rx="10" fill="#161b22" stroke="#4c8dff" stroke-width="2"/><text x="640.0" y="320.0" fill="#e6edf3" font-family="DejaVu Sans, Arial, sans-serif" font-size="13" text-anchor="middle" font-weight="bold">Login (password)</text><polygon points="640,365.0 745.0,400 640,435.0 535.0,400" fill="#161b22" stroke="#d29922" stroke-width="2"/><text x="640" y="404" fill="#e6edf3" font-family="DejaVu Sans, Arial, sans-serif" font-size="12" text-anchor="middle" font-weight="bold">pwd ok &amp; not locked?</text><rect x="900" y="375" width="180" height="50" rx="10" fill="#161b22" stroke="#f85149" stroke-width="2"/><text x="990.0" y="405.0" fill="#e6edf3" font-family="DejaVu Sans, Arial, sans-serif" font-size="13" text-anchor="middle" font-weight="bold">401 · lockout after 5</text><polygon points="640,502.0 740.0,540 640,578.0 540.0,540" fill="#161b22" stroke="#d29922" stroke-width="2"/><text x="640" y="544" fill="#e6edf3" font-family="DejaVu Sans, Arial, sans-serif" font-size="12" text-anchor="middle" font-weight="bold">2FA enabled?</text><rect x="900" y="515" width="180" height="50" rx="10" fill="#161b22" stroke="#a371f7" stroke-width="2"/><text x="990.0" y="545.0" fill="#e6edf3" font-family="DejaVu Sans, Arial, sans-serif" font-size="13" text-anchor="middle" font-weight="bold">Require 6-digit OTP</text><polygon points="640,652.0 755.0,690 640,728.0 525.0,690" fill="#161b22" stroke="#d29922" stroke-width="2"/><text x="640" y="694" fill="#e6edf3" font-family="DejaVu Sans, Arial, sans-serif" font-size="12" text-anchor="middle" font-weight="bold">must_change_pw?</text><rect x="900" y="665" width="180" height="50" rx="10" fill="#161b22" stroke="#d29922" stroke-width="2"/><text x="990.0" y="695.0" fill="#e6edf3" font-family="DejaVu Sans, Arial, sans-serif" font-size="13" text-anchor="middle" font-weight="bold">Force change-pw</text><rect x="540" y="820" width="200" height="54" rx="10" fill="#161b22" stroke="#3fb950" stroke-width="2"/><text x="640.0" y="852.0" fill="#e6edf3" font-family="DejaVu Sans, Arial, sans-serif" font-size="13" text-anchor="middle" font-weight="bold">Issue JWT + signing key</text><rect x="540" y="920" width="200" height="54" rx="10" fill="#161b22" stroke="#4c8dff" stroke-width="2"/><text x="640.0" y="952.0" fill="#e6edf3" font-family="DejaVu Sans, Arial, sans-serif" font-size="13" text-anchor="middle" font-weight="bold">Launch (pick profile)</text><rect x="540" y="1010" width="200" height="54" rx="10" fill="#161b22" stroke="#4c8dff" stroke-width="2"/><text x="640.0" y="1042.0" fill="#e6edf3" font-family="DejaVu Sans, Arial, sans-serif" font-size="13" text-anchor="middle" font-weight="bold">Gateway: start server + OTT</text><rect x="280" y="1010" width="200" height="54" rx="10" fill="#161b22" stroke="#f5a623" stroke-width="2"/><text x="380.0" y="1042.0" fill="#e6edf3" font-family="DejaVu Sans, Arial, sans-serif" font-size="13" text-anchor="middle" font-weight="bold">Open /hub/sso-login</text><rect x="40" y="920" width="200" height="54" rx="10" fill="#161b22" stroke="#f5a623" stroke-width="2"/><text x="140.0" y="952.0" fill="#e6edf3" font-family="DejaVu Sans, Arial, sans-serif" font-size="13" text-anchor="middle" font-weight="bold">Hub redeems OTT → cookie</text><rect x="40" y="820" width="200" height="54" rx="10" fill="#161b22" stroke="#3fb950" stroke-width="2"/><text x="140.0" y="852.0" fill="#e6edf3" font-family="DejaVu Sans, Arial, sans-serif" font-size="13" text-anchor="middle" font-weight="bold">Swarm schedules on free node</text><rect x="40" y="720" width="200" height="54" rx="10" fill="#161b22" stroke="#3fb950" stroke-width="2"/><text x="140.0" y="752.0" fill="#e6edf3" font-family="DejaVu Sans, Arial, sans-serif" font-size="13" text-anchor="middle" font-weight="bold">JupyterLab (NFS /work)</text><line x1="640.0" y1="130" x2="640" y2="165" stroke="#f5a623" stroke-width="2" marker-end="url(#arr)"/><line x1="740" y1="200" x2="900" y2="200.0" stroke="#f5a623" stroke-width="2" marker-end="url(#arr)"/><rect x="809.4" y="190.0" width="21.2" height="17" rx="3" fill="#0e1116" opacity="0.85"/><text x="820.0" y="204.0" fill="#8b949e" font-family="DejaVu Sans, Arial, sans-serif" font-size="11" text-anchor="middle" font-weight="normal">no</text><line x1="640" y1="235" x2="640.0" y2="290" stroke="#f5a623" stroke-width="2" marker-end="url(#arr)"/><rect x="626.1" y="252.5" width="27.8" height="17" rx="3" fill="#0e1116" opacity="0.85"/><text x="640.0" y="266.5" fill="#8b949e" font-family="DejaVu Sans, Arial, sans-serif" font-size="11" text-anchor="middle" font-weight="normal">yes</text><line x1="640.0" y1="340" x2="640" y2="365" stroke="#f5a623" stroke-width="2" marker-end="url(#arr)"/><line x1="745" y1="400" x2="900" y2="400.0" stroke="#f5a623" stroke-width="2" marker-end="url(#arr)"/><rect x="811.9" y="390.0" width="21.2" height="17" rx="3" fill="#0e1116" opacity="0.85"/><text x="822.5" y="404.0" fill="#8b949e" font-family="DejaVu Sans, Arial, sans-serif" font-size="11" text-anchor="middle" font-weight="normal">no</text><line x1="640" y1="435" x2="640" y2="502.0" stroke="#f5a623" stroke-width="2" marker-end="url(#arr)"/><rect x="626.1" y="458.5" width="27.8" height="17" rx="3" fill="#0e1116" opacity="0.85"/><text x="640.0" y="472.5" fill="#8b949e" font-family="DejaVu Sans, Arial, sans-serif" font-size="11" text-anchor="middle" font-weight="normal">yes</text><line x1="740" y1="540" x2="900" y2="540.0" stroke="#f5a623" stroke-width="2" marker-end="url(#arr)"/><rect x="806.1" y="530.0" width="27.8" height="17" rx="3" fill="#0e1116" opacity="0.85"/><text x="820.0" y="544.0" fill="#8b949e" font-family="DejaVu Sans, Arial, sans-serif" font-size="11" text-anchor="middle" font-weight="normal">yes</text><line x1="990.0" y1="565" x2="820" y2="600" stroke="#f5a623" stroke-width="2" marker-end="url(#arr)"/><line x1="640" y1="578" x2="640" y2="652.0" stroke="#f5a623" stroke-width="2" marker-end="url(#arr)"/><rect x="622.8" y="605.0" width="34.4" height="17" rx="3" fill="#0e1116" opacity="0.85"/><text x="640.0" y="619.0" fill="#8b949e" font-family="DejaVu Sans, Arial, sans-serif" font-size="11" text-anchor="middle" font-weight="normal">no →</text><line x1="755" y1="690" x2="900" y2="690.0" stroke="#f5a623" stroke-width="2" marker-end="url(#arr)"/><rect x="813.6" y="680.0" width="27.8" height="17" rx="3" fill="#0e1116" opacity="0.85"/><text x="827.5" y="694.0" fill="#8b949e" font-family="DejaVu Sans, Arial, sans-serif" font-size="11" text-anchor="middle" font-weight="normal">yes</text><line x1="990.0" y1="715" x2="820" y2="760" stroke="#f5a623" stroke-width="2" marker-end="url(#arr)"/><line x1="640" y1="728" x2="640.0" y2="820" stroke="#f5a623" stroke-width="2" marker-end="url(#arr)"/><rect x="629.4" y="764.0" width="21.2" height="17" rx="3" fill="#0e1116" opacity="0.85"/><text x="640.0" y="778.0" fill="#8b949e" font-family="DejaVu Sans, Arial, sans-serif" font-size="11" text-anchor="middle" font-weight="normal">no</text><line x1="640.0" y1="874" x2="640.0" y2="920" stroke="#f5a623" stroke-width="2" marker-end="url(#arr)"/><line x1="640.0" y1="974" x2="640.0" y2="1010" stroke="#f5a623" stroke-width="2" marker-end="url(#arr)"/><line x1="540" y1="1037.0" x2="480" y2="1037.0" stroke="#f5a623" stroke-width="2" marker-end="url(#arr)"/><line x1="380.0" y1="1010" x2="300" y2="1010" stroke="#f5a623" stroke-width="2" marker-end="url(#arr)"/><line x1="280" y1="1010" x2="180.0" y2="974.0" stroke="#f5a623" stroke-width="2" marker-end="url(#arr)"/><rect x="202.9" y="982.0" width="54.199999999999996" height="17" rx="3" fill="#0e1116" opacity="0.85"/><text x="230.0" y="996.0" fill="#8b949e" font-family="DejaVu Sans, Arial, sans-serif" font-size="11" text-anchor="middle" font-weight="normal">new tab</text><line x1="140.0" y1="920" x2="140.0" y2="874" stroke="#f5a623" stroke-width="2" marker-end="url(#arr)"/><line x1="140.0" y1="820" x2="140.0" y2="774" stroke="#f5a623" stroke-width="2" marker-end="url(#arr)"/><rect x="820" y="880" width="380" height="92" rx="6" fill="#1c232d" stroke="#4c8dff" stroke-width="1.4"/><text x="830" y="898" fill="#4c8dff" font-family="DejaVu Sans, Arial, sans-serif" font-size="12" text-anchor="start" font-weight="bold">Per-request security path</text><text x="830" y="916" fill="#8b949e" font-family="DejaVu Sans, Arial, sans-serif" font-size="10.5" text-anchor="start" font-weight="normal">Every state-changing API call additionally passes:</text><text x="830" y="931" fill="#8b949e" font-family="DejaVu Sans, Arial, sans-serif" font-size="10.5" text-anchor="start" font-weight="normal">TLS edge → SecurityHeaders → CORS → RateLimit →</text><text x="830" y="946" fill="#8b949e" font-family="DejaVu Sans, Arial, sans-serif" font-size="10.5" text-anchor="start" font-weight="normal">BotFilter → RequestSigning(HMAC+nonce) → handler.</text><text x="830" y="961" fill="#8b949e" font-family="DejaVu Sans, Arial, sans-serif" font-size="10.5" text-anchor="start" font-weight="normal">Suspend/delete instantly revoke sessions + Hub server.</text><rect x="820" y="1040" width="380" height="46" rx="6" fill="#2a0f0f" stroke="#d29922" stroke-width="1.6"/><text x="830" y="1056" fill="#d29922" font-family="DejaVu Sans, Arial, sans-serif" font-size="12" text-anchor="start" font-weight="bold">⚠ N13</text><text x="830" y="1072" fill="#f0c9c9" font-family="DejaVu Sans, Arial, sans-serif" font-size="10.5" text-anchor="start" font-weight="normal">SPA logout ends the SPA session but not the</text><text x="830" y="1086" fill="#f0c9c9" font-family="DejaVu Sans, Arial, sans-serif" font-size="10.5" text-anchor="start" font-weight="normal">Hub cookie/notebook in the other tab.</text></svg>